<svg width="433" height="563" viewBox="0 0 433 563" fill="none" xmlns="http://www.w3.org/2000/svg">
<path d="M90 0L101.433 29.7358C112.867 59.7904 135.733 118.784 158.6 140.308C181.467 161.833 204.333 144.294 227.2 119.023C250.067 93.273 272.933 59.7904 295.8 46.7959C318.667 34.2798 341.533 42.2519 364.4 38.2659C387.267 34.2798 410.133 16.7413 421.567 8.5301L433 0H421.567C410.133 0 387.267 0 364.4 0C341.533 0 318.667 0 295.8 0C272.933 0 250.067 0 227.2 0C204.333 0 181.467 0 158.6 0C135.733 0 112.867 0 101.433 0H90Z" fill="#fafdff"/>
</svg>
