<svg width="167" height="258" viewBox="0 0 167 258" fill="none" xmlns="http://www.w3.org/2000/svg">
<path d="M0 26.2225H9.27778C18.5556 26.2225 37.1111 26.2225 55.6667 32.7782C74.2222 39.3338 92.7778 52.4451 111.333 55.7229C129.889 59.0007 148.444 52.4451 157.722 49.1672L167 45.8894V0H157.722C148.444 0 129.889 0 111.333 0C92.7778 0 74.2222 0 55.6667 0C37.1111 0 18.5556 0 9.27778 0H0V26.2225Z" fill="#e1f0fa"/>
<path d="M0 244.506L9.27778 241.228C18.5556 237.95 37.1111 231.394 55.6667 232.48C74.2222 233.648 92.7778 242.252 111.333 237.95C129.889 233.648 148.444 216.03 157.722 207.364L167 198.616V257.617H157.722C148.444 257.617 129.889 257.617 111.333 257.617C92.7778 257.617 74.2222 257.617 55.6667 257.617C37.1111 257.617 18.5556 257.617 9.27778 257.617H0V244.506Z" fill="#e1f0fa"/>
</svg>
